<svg width="802" height="136" viewBox="0 0 802 136" fill="none" xmlns="http://www.w3.org/2000/svg">
<path d="M181.547 47.75V41.0469H219.375V47.75H204V110H196.969V47.75H181.547ZM271.125 93.0781L276.656 95.9844C274.844 99.5469 272.75 102.422 270.375 104.609C268 106.797 265.328 108.469 262.359 109.625C259.391 110.75 256.031 111.312 252.281 111.312C243.969 111.312 237.469 108.594 232.781 103.156C228.094 97.6875 225.75 91.5156 225.75 84.6406C225.75 78.1719 227.734 72.4062 231.703 67.3438C236.734 60.9062 243.469 57.6875 251.906 57.6875C260.594 57.6875 267.531 60.9844 272.719 67.5781C276.406 72.2344 278.281 78.0469 278.344 85.0156H232.5C232.625 90.9531 234.516 95.8281 238.172 99.6406C241.828 103.422 246.344 105.312 251.719 105.312C254.312 105.312 256.828 104.859 259.266 103.953C261.734 103.047 263.828 101.844 265.547 100.344C267.266 98.8438 269.125 96.4219 271.125 93.0781ZM271.125 79.3438C270.25 75.8438 268.969 73.0469 267.281 70.9531C265.625 68.8594 263.422 67.1719 260.672 65.8906C257.922 64.6094 255.031 63.9688 252 63.9688C247 63.9688 242.703 65.5781 239.109 68.7969C236.484 71.1406 234.5 74.6562 233.156 79.3438H271.125ZM340.125 69.5938L334.922 72.8281C330.422 66.8594 324.281 63.875 316.5 63.875C310.281 63.875 305.109 65.875 300.984 69.875C296.891 73.875 294.844 78.7344 294.844 84.4531C294.844 88.1719 295.781 91.6719 297.656 94.9531C299.562 98.2344 302.156 100.781 305.438 102.594C308.75 104.406 312.453 105.312 316.547 105.312C324.047 105.312 330.172 102.328 334.922 96.3594L340.125 99.7812C337.688 103.438 334.406 106.281 330.281 108.312C326.188 110.312 321.516 111.312 316.266 111.312C308.203 111.312 301.516 108.75 296.203 103.625C290.891 98.5 288.234 92.2656 288.234 84.9219C288.234 79.9844 289.469 75.4062 291.938 71.1875C294.438 66.9375 297.859 63.625 302.203 61.25C306.547 58.875 311.406 57.6875 316.781 57.6875C320.156 57.6875 323.406 58.2031 326.531 59.2344C329.688 60.2656 332.359 61.6094 334.547 63.2656C336.734 64.9219 338.594 67.0312 340.125 69.5938ZM352.781 39.3125H359.344V68.1406C362 64.6406 364.922 62.0312 368.109 60.3125C371.297 58.5625 374.75 57.6875 378.469 57.6875C382.281 57.6875 385.656 58.6562 388.594 60.5938C391.562 62.5312 393.75 65.1406 395.156 68.4219C396.562 71.6719 397.266 76.7812 397.266 83.75V110H390.703V85.6719C390.703 79.7969 390.469 75.875 390 73.9062C389.188 70.5312 387.703 68 385.547 66.3125C383.422 64.5938 380.625 63.7344 377.156 63.7344C373.188 63.7344 369.625 65.0469 366.469 67.6719C363.344 70.2969 361.281 73.5469 360.281 77.4219C359.656 79.9219 359.344 84.5469 359.344 91.2969V110H352.781V39.3125ZM406.547 59H413.531L430.594 96.125L447.516 59H454.547L431.203 110H430.031L406.547 59ZM488.766 57.6875C496.609 57.6875 503.109 60.5312 508.266 66.2188C512.953 71.4062 515.297 77.5469 515.297 84.6406C515.297 91.7656 512.812 98 507.844 103.344C502.906 108.656 496.547 111.312 488.766 111.312C480.953 111.312 474.562 108.656 469.594 103.344C464.656 98 462.188 91.7656 462.188 84.6406C462.188 77.5781 464.531 71.4531 469.219 66.2656C474.375 60.5469 480.891 57.6875 488.766 57.6875ZM488.766 64.1094C483.328 64.1094 478.656 66.125 474.75 70.1562C470.844 74.1875 468.891 79.0625 468.891 84.7812C468.891 88.4688 469.781 91.9062 471.562 95.0938C473.344 98.2812 475.75 100.75 478.781 102.5C481.812 104.219 485.141 105.078 488.766 105.078C492.391 105.078 495.719 104.219 498.75 102.5C501.781 100.75 504.188 98.2812 505.969 95.0938C507.75 91.9062 508.641 88.4688 508.641 84.7812C508.641 79.0625 506.672 74.1875 502.734 70.1562C498.828 66.125 494.172 64.1094 488.766 64.1094ZM526.547 39.3125H533.109V110H526.547V39.3125ZM545.906 59H552.516V82.8125C552.516 88.625 552.828 92.625 553.453 94.8125C554.391 97.9375 556.172 100.406 558.797 102.219C561.453 104.031 564.609 104.938 568.266 104.938C571.922 104.938 575.016 104.062 577.547 102.312C580.109 100.531 581.875 98.2031 582.844 95.3281C583.5 93.3594 583.828 89.1875 583.828 82.8125V59H590.531V84.0312C590.531 91.0625 589.703 96.3594 588.047 99.9219C586.422 103.484 583.953 106.281 580.641 108.312C577.359 110.312 573.234 111.312 568.266 111.312C563.297 111.312 559.141 110.312 555.797 108.312C552.484 106.281 550 103.469 548.344 99.875C546.719 96.25 545.906 90.8125 545.906 83.5625V59ZM610.875 40.0625H617.484V59H627.891V64.625H617.484V110H610.875V64.625H601.922V59H610.875V40.0625ZM639.984 38C641.484 38 642.766 38.5312 643.828 39.5938C644.891 40.6562 645.422 41.9375 645.422 43.4375C645.422 44.9062 644.891 46.1719 643.828 47.2344C642.766 48.2969 641.484 48.8281 639.984 48.8281C638.516 48.8281 637.25 48.2969 636.188 47.2344C635.125 46.1719 634.594 44.9062 634.594 43.4375C634.594 41.9375 635.125 40.6562 636.188 39.5938C637.25 38.5312 638.516 38 639.984 38ZM636.703 59H643.312V110H636.703V59ZM681.047 57.6875C688.891 57.6875 695.391 60.5312 700.547 66.2188C705.234 71.4062 707.578 77.5469 707.578 84.6406C707.578 91.7656 705.094 98 700.125 103.344C695.188 108.656 688.828 111.312 681.047 111.312C673.234 111.312 666.844 108.656 661.875 103.344C656.938 98 654.469 91.7656 654.469 84.6406C654.469 77.5781 656.812 71.4531 661.5 66.2656C666.656 60.5469 673.172 57.6875 681.047 57.6875ZM681.047 64.1094C675.609 64.1094 670.938 66.125 667.031 70.1562C663.125 74.1875 661.172 79.0625 661.172 84.7812C661.172 88.4688 662.062 91.9062 663.844 95.0938C665.625 98.2812 668.031 100.75 671.062 102.5C674.094 104.219 677.422 105.078 681.047 105.078C684.672 105.078 688 104.219 691.031 102.5C694.062 100.75 696.469 98.2812 698.25 95.0938C700.031 91.9062 700.922 88.4688 700.922 84.7812C700.922 79.0625 698.953 74.1875 695.016 70.1562C691.109 66.125 686.453 64.1094 681.047 64.1094ZM719.812 59H726.375V68.1406C729 64.6406 731.906 62.0312 735.094 60.3125C738.281 58.5625 741.75 57.6875 745.5 57.6875C749.312 57.6875 752.688 58.6562 755.625 60.5938C758.594 62.5312 760.781 65.1406 762.188 68.4219C763.594 71.7031 764.297 76.8125 764.297 83.75V110H757.781V85.6719C757.781 79.7969 757.531 75.875 757.031 73.9062C756.25 70.5312 754.781 68 752.625 66.3125C750.469 64.5938 747.656 63.7344 744.188 63.7344C740.219 63.7344 736.656 65.0469 733.5 67.6719C730.375 70.2969 728.312 73.5469 727.312 77.4219C726.688 79.9531 726.375 84.5781 726.375 91.2969V110H719.812V59Z" fill="black"/>
<circle cx="25.4124" cy="69.4124" r="20.4124" stroke="#29B5F1" stroke-width="10"/>
<circle cx="51.4124" cy="25.4124" r="20.4124" stroke="#29B5F1" stroke-width="10"/>
<circle cx="51.4124" cy="110.412" r="20.4124" stroke="#29B5F1" stroke-width="10"/>
<circle r="20.4124" transform="matrix(-1 0 0 1 127.161 69.0807)" stroke="#29B5F1" stroke-width="10"/>
<circle r="20.4124" transform="matrix(-1 0 0 1 101.474 25.4124)" stroke="#29B5F1" stroke-width="10"/>
<circle r="20.4124" transform="matrix(-1 0 0 1 76.4123 68.4124)" stroke="#29B5F1" stroke-width="10"/>
<circle r="20.4124" transform="matrix(-1 0 0 1 101.474 110.18)" stroke="#29B5F1" stroke-width="10"/>
</svg>
