<svg height='100px' width='100px'  fill="#000000" xmlns="http://www.w3.org/2000/svg" xmlns:xlink="http://www.w3.org/1999/xlink" version="1.2" baseProfile="tiny" x="0px" y="0px" viewBox="0 0 100 100" xml:space="preserve"><path d="M92.5,90H70c0-11.028-8.972-20-20-20c-2.398,0-4.688,0.446-6.821,1.223L24.842,35.472l2.225-1.141  c0.59-0.303,1.035-0.827,1.239-1.458c0.203-0.632,0.147-1.317-0.155-1.907L19.023,13.17c-0.63-1.229-2.137-1.717-3.366-1.084  l-8.898,4.563c-0.59,0.303-1.035,0.827-1.239,1.458c-0.203,0.632-0.147,1.317,0.155,1.907l9.127,17.796  c0.443,0.863,1.319,1.36,2.227,1.36c0.384,0,0.774-0.089,1.139-0.276l2.224-1.141l18.332,35.742C33.463,77.102,30,83.152,30,90H7.5  C6.119,90,5,91.119,5,92.5S6.119,95,7.5,95h25h35h25c1.381,0,2.5-1.119,2.5-2.5S93.881,90,92.5,90z M18.111,33.305l-6.846-13.347  l4.449-2.282l6.846,13.347L18.111,33.305z M45,90c0-2.757,2.243-5,5-5s5,2.243,5,5H45z M60,90c0-5.514-4.486-10-10-10  s-10,4.486-10,10h-5c0-8.271,6.729-15,15-15s15,6.729,15,15H60z"></path></svg>