<svg width="453" height="141" viewBox="0 0 453 141" fill="none" xmlns="http://www.w3.org/2000/svg">
<path d="M233.682 123.056C229.843 129.774 220.157 129.774 216.318 123.056L158.549 21.9614C154.74 15.2948 159.554 7 167.232 7L282.768 7C290.446 7 295.26 15.2948 291.451 21.9614L233.682 123.056Z" fill="#00D725"/>
<path d="M66.3176 15.1942C70.1565 8.47609 79.8435 8.47611 83.6824 15.1943L141.451 116.289C145.26 122.955 140.446 131.25 132.768 131.25L17.2318 131.25C9.55357 131.25 4.7399 122.955 8.54936 116.289L66.3176 15.1942Z" fill="#6764F5"/>
<circle cx="325.412" cy="74.4124" r="20.4124" stroke="#29B5F1" stroke-width="10"/>
<circle cx="351.412" cy="30.4124" r="20.4124" stroke="#29B5F1" stroke-width="10"/>
<circle cx="351.412" cy="115.412" r="20.4124" stroke="#29B5F1" stroke-width="10"/>
<circle r="20.4124" transform="matrix(-1 0 0 1 427.161 74.0807)" stroke="#29B5F1" stroke-width="10"/>
<circle r="20.4124" transform="matrix(-1 0 0 1 401.474 30.4124)" stroke="#29B5F1" stroke-width="10"/>
<circle r="20.4124" transform="matrix(-1 0 0 1 376.412 73.4124)" stroke="#29B5F1" stroke-width="10"/>
<circle r="20.4124" transform="matrix(-1 0 0 1 401.474 115.18)" stroke="#29B5F1" stroke-width="10"/>
</svg>
