<svg width="1086" height="141" viewBox="0 0 1086 141" fill="none" xmlns="http://www.w3.org/2000/svg">
<path d="M465.547 52.75V46.0469H503.375V52.75H488V115H480.969V52.75H465.547ZM555.125 98.0781L560.656 100.984C558.844 104.547 556.75 107.422 554.375 109.609C552 111.797 549.328 113.469 546.359 114.625C543.391 115.75 540.031 116.312 536.281 116.312C527.969 116.312 521.469 113.594 516.781 108.156C512.094 102.688 509.75 96.5156 509.75 89.6406C509.75 83.1719 511.734 77.4062 515.703 72.3438C520.734 65.9062 527.469 62.6875 535.906 62.6875C544.594 62.6875 551.531 65.9844 556.719 72.5781C560.406 77.2344 562.281 83.0469 562.344 90.0156H516.5C516.625 95.9531 518.516 100.828 522.172 104.641C525.828 108.422 530.344 110.312 535.719 110.312C538.312 110.312 540.828 109.859 543.266 108.953C545.734 108.047 547.828 106.844 549.547 105.344C551.266 103.844 553.125 101.422 555.125 98.0781ZM555.125 84.3438C554.25 80.8438 552.969 78.0469 551.281 75.9531C549.625 73.8594 547.422 72.1719 544.672 70.8906C541.922 69.6094 539.031 68.9688 536 68.9688C531 68.9688 526.703 70.5781 523.109 73.7969C520.484 76.1406 518.5 79.6562 517.156 84.3438H555.125ZM624.125 74.5938L618.922 77.8281C614.422 71.8594 608.281 68.875 600.5 68.875C594.281 68.875 589.109 70.875 584.984 74.875C580.891 78.875 578.844 83.7344 578.844 89.4531C578.844 93.1719 579.781 96.6719 581.656 99.9531C583.562 103.234 586.156 105.781 589.438 107.594C592.75 109.406 596.453 110.312 600.547 110.312C608.047 110.312 614.172 107.328 618.922 101.359L624.125 104.781C621.688 108.438 618.406 111.281 614.281 113.312C610.188 115.312 605.516 116.312 600.266 116.312C592.203 116.312 585.516 113.75 580.203 108.625C574.891 103.5 572.234 97.2656 572.234 89.9219C572.234 84.9844 573.469 80.4062 575.938 76.1875C578.438 71.9375 581.859 68.625 586.203 66.25C590.547 63.875 595.406 62.6875 600.781 62.6875C604.156 62.6875 607.406 63.2031 610.531 64.2344C613.688 65.2656 616.359 66.6094 618.547 68.2656C620.734 69.9219 622.594 72.0312 624.125 74.5938ZM636.781 44.3125H643.344V73.1406C646 69.6406 648.922 67.0312 652.109 65.3125C655.297 63.5625 658.75 62.6875 662.469 62.6875C666.281 62.6875 669.656 63.6562 672.594 65.5938C675.562 67.5312 677.75 70.1406 679.156 73.4219C680.562 76.6719 681.266 81.7812 681.266 88.75V115H674.703V90.6719C674.703 84.7969 674.469 80.875 674 78.9062C673.188 75.5312 671.703 73 669.547 71.3125C667.422 69.5938 664.625 68.7344 661.156 68.7344C657.188 68.7344 653.625 70.0469 650.469 72.6719C647.344 75.2969 645.281 78.5469 644.281 82.4219C643.656 84.9219 643.344 89.5469 643.344 96.2969V115H636.781V44.3125ZM690.547 64H697.531L714.594 101.125L731.516 64H738.547L715.203 115H714.031L690.547 64ZM772.766 62.6875C780.609 62.6875 787.109 65.5312 792.266 71.2188C796.953 76.4062 799.297 82.5469 799.297 89.6406C799.297 96.7656 796.812 103 791.844 108.344C786.906 113.656 780.547 116.312 772.766 116.312C764.953 116.312 758.562 113.656 753.594 108.344C748.656 103 746.188 96.7656 746.188 89.6406C746.188 82.5781 748.531 76.4531 753.219 71.2656C758.375 65.5469 764.891 62.6875 772.766 62.6875ZM772.766 69.1094C767.328 69.1094 762.656 71.125 758.75 75.1562C754.844 79.1875 752.891 84.0625 752.891 89.7812C752.891 93.4688 753.781 96.9062 755.562 100.094C757.344 103.281 759.75 105.75 762.781 107.5C765.812 109.219 769.141 110.078 772.766 110.078C776.391 110.078 779.719 109.219 782.75 107.5C785.781 105.75 788.188 103.281 789.969 100.094C791.75 96.9062 792.641 93.4688 792.641 89.7812C792.641 84.0625 790.672 79.1875 786.734 75.1562C782.828 71.125 778.172 69.1094 772.766 69.1094ZM810.547 44.3125H817.109V115H810.547V44.3125ZM829.906 64H836.516V87.8125C836.516 93.625 836.828 97.625 837.453 99.8125C838.391 102.938 840.172 105.406 842.797 107.219C845.453 109.031 848.609 109.938 852.266 109.938C855.922 109.938 859.016 109.062 861.547 107.312C864.109 105.531 865.875 103.203 866.844 100.328C867.5 98.3594 867.828 94.1875 867.828 87.8125V64H874.531V89.0312C874.531 96.0625 873.703 101.359 872.047 104.922C870.422 108.484 867.953 111.281 864.641 113.312C861.359 115.312 857.234 116.312 852.266 116.312C847.297 116.312 843.141 115.312 839.797 113.312C836.484 111.281 834 108.469 832.344 104.875C830.719 101.25 829.906 95.8125 829.906 88.5625V64ZM894.875 45.0625H901.484V64H911.891V69.625H901.484V115H894.875V69.625H885.922V64H894.875V45.0625ZM923.984 43C925.484 43 926.766 43.5312 927.828 44.5938C928.891 45.6562 929.422 46.9375 929.422 48.4375C929.422 49.9062 928.891 51.1719 927.828 52.2344C926.766 53.2969 925.484 53.8281 923.984 53.8281C922.516 53.8281 921.25 53.2969 920.188 52.2344C919.125 51.1719 918.594 49.9062 918.594 48.4375C918.594 46.9375 919.125 45.6562 920.188 44.5938C921.25 43.5312 922.516 43 923.984 43ZM920.703 64H927.312V115H920.703V64ZM965.047 62.6875C972.891 62.6875 979.391 65.5312 984.547 71.2188C989.234 76.4062 991.578 82.5469 991.578 89.6406C991.578 96.7656 989.094 103 984.125 108.344C979.188 113.656 972.828 116.312 965.047 116.312C957.234 116.312 950.844 113.656 945.875 108.344C940.938 103 938.469 96.7656 938.469 89.6406C938.469 82.5781 940.812 76.4531 945.5 71.2656C950.656 65.5469 957.172 62.6875 965.047 62.6875ZM965.047 69.1094C959.609 69.1094 954.938 71.125 951.031 75.1562C947.125 79.1875 945.172 84.0625 945.172 89.7812C945.172 93.4688 946.062 96.9062 947.844 100.094C949.625 103.281 952.031 105.75 955.062 107.5C958.094 109.219 961.422 110.078 965.047 110.078C968.672 110.078 972 109.219 975.031 107.5C978.062 105.75 980.469 103.281 982.25 100.094C984.031 96.9062 984.922 93.4688 984.922 89.7812C984.922 84.0625 982.953 79.1875 979.016 75.1562C975.109 71.125 970.453 69.1094 965.047 69.1094ZM1003.81 64H1010.38V73.1406C1013 69.6406 1015.91 67.0312 1019.09 65.3125C1022.28 63.5625 1025.75 62.6875 1029.5 62.6875C1033.31 62.6875 1036.69 63.6562 1039.62 65.5938C1042.59 67.5312 1044.78 70.1406 1046.19 73.4219C1047.59 76.7031 1048.3 81.8125 1048.3 88.75V115H1041.78V90.6719C1041.78 84.7969 1041.53 80.875 1041.03 78.9062C1040.25 75.5312 1038.78 73 1036.62 71.3125C1034.47 69.5938 1031.66 68.7344 1028.19 68.7344C1024.22 68.7344 1020.66 70.0469 1017.5 72.6719C1014.38 75.2969 1012.31 78.5469 1011.31 82.4219C1010.69 84.9531 1010.38 89.5781 1010.38 96.2969V115H1003.81V64Z" fill="black"/>
<path d="M233.682 123.056C229.843 129.774 220.157 129.774 216.318 123.056L158.549 21.9614C154.74 15.2948 159.554 7 167.232 7L282.768 7C290.446 7 295.26 15.2948 291.451 21.9614L233.682 123.056Z" fill="#00D725"/>
<path d="M66.3176 15.1942C70.1565 8.47609 79.8435 8.47611 83.6824 15.1943L141.451 116.289C145.26 122.955 140.446 131.25 132.768 131.25L17.2318 131.25C9.55357 131.25 4.7399 122.955 8.54936 116.289L66.3176 15.1942Z" fill="#6764F5"/>
<circle cx="325.412" cy="74.4124" r="20.4124" stroke="#29B5F1" stroke-width="10"/>
<circle cx="351.412" cy="30.4124" r="20.4124" stroke="#29B5F1" stroke-width="10"/>
<circle cx="351.412" cy="115.412" r="20.4124" stroke="#29B5F1" stroke-width="10"/>
<circle r="20.4124" transform="matrix(-1 0 0 1 427.161 74.0807)" stroke="#29B5F1" stroke-width="10"/>
<circle r="20.4124" transform="matrix(-1 0 0 1 401.474 30.4124)" stroke="#29B5F1" stroke-width="10"/>
<circle r="20.4124" transform="matrix(-1 0 0 1 376.412 73.4124)" stroke="#29B5F1" stroke-width="10"/>
<circle r="20.4124" transform="matrix(-1 0 0 1 401.474 115.18)" stroke="#29B5F1" stroke-width="10"/>
</svg>
